<svg width="1000" height="305" viewBox="0 0 1000 305" fill="none" xmlns="http://www.w3.org/2000/svg">
<g clip-path="url(#clip0_240_385)">
<path d="M502.617 138.306H410.801V114.927H502.617V89.0388H410.801V68.1938H502.617V42.3828H378.213V164.106H502.617V138.306ZM898.301 90.4988L975.469 164.106H1000V42.3828H967.461V116.001L890.322 42.3828H865.771V164.106H898.301V90.4988ZM830.693 42.3828H696.436V164.106H830.694L830.693 42.3828ZM798.164 138.306H728.994V68.1938H798.164V138.306ZM241.42 90.4988L318.555 164.106H343.135V42.3828H310.586V116.001L233.446 42.3828H208.876V164.106H241.42V90.4988ZM599.619 126.495L632.959 164.106H674.082L620.166 103.287L674.209 42.3828H632.998L599.619 80.0828L566.191 42.3828H524.99L579.033 103.287L525.117 164.106H566.279L599.619 126.495Z" fill="white"/>
<path d="M-0.000976562 164.624V266.928L135.849 194.663L-0.000976562 164.624Z" fill="#00A1DF"/>
<path d="M135.849 0L-0.000976562 72.217V164.624L135.849 194.663V0Z" fill="#002B49"/>
<path d="M135.849 194.663L-0.000976562 266.928L168.485 304.262L304.307 232.065L135.849 194.663Z" fill="#C4D600"/>
</g>
<defs>
<clipPath id="clip0_240_385">
<rect width="1000" height="304.263" fill="white"/>
</clipPath>
</defs>
</svg>
