<svg width="587" height="525" viewBox="0 0 587 525" fill="none" xmlns="http://www.w3.org/2000/svg">
<path d="M1.2736 329.961C3.2736 261.961 61.7736 213.627 90.7736 197.961C122.774 165.561 207.44 158.794 245.774 159.461L252.774 138.961L256.774 102.961C255.44 98.4606 249.774 87.6606 237.774 80.4606C225.774 73.2606 206.107 96.1273 197.774 108.461H171.774C170.274 103.961 165.174 94.9606 156.774 94.9606C148.374 94.9606 148.94 82.9606 150.274 76.9606H140.274C128.774 67.4606 118.974 40.8606 171.774 10.4606C240.574 -15.9394 279.44 19.1273 290.274 39.9606C290.274 45.6273 291.774 56.9606 297.774 56.9606C375.274 24.4606 404.274 69.9606 419.274 89.4606C434.274 108.961 420.274 134.461 413.774 138.961C408.574 142.561 399.94 144.794 396.274 145.461L389.774 153.461L372.774 145.461C371.607 147.961 366.774 153.061 356.774 153.461C344.274 153.961 353.274 129.461 326.274 108.461C304.674 91.6606 286.94 121.794 280.774 138.961V166.461C368.274 188.461 409.274 273.961 413.774 308.461C416.974 333.261 437.774 363.127 447.774 374.961V365.461C454.974 298.661 485.44 284.627 499.774 285.961C503.44 284.794 512.474 288.861 519.274 314.461C526.074 340.061 509.107 367.794 499.774 378.461C499.94 379.627 500.874 381.961 503.274 381.961C558.874 376.761 581.774 396.794 586.274 407.461C584.774 416.461 576.774 436.461 556.774 444.461C531.774 454.461 498.274 446.961 484.274 440.961C473.774 428.961 466.774 429.961 461.774 429.961C447.274 443.461 368.774 483.461 356.774 482.961C347.174 482.561 348.44 470.794 350.274 464.961C346.107 464.294 337.574 463.361 336.774 464.961C335.774 466.961 337.274 477.461 343.774 494.961C351.774 503.361 353.44 508.794 353.274 510.461C351.774 514.794 342.674 523.561 318.274 523.961C293.874 524.361 271.44 504.794 263.274 494.961C264.44 497.461 263.974 502.461 252.774 502.461C166.774 503.661 99.2736 478.627 76.2736 465.961L69.7736 471.961C64.2736 473.794 47.4736 477.461 24.2736 477.461C-3.2264 474.461 1.2736 456.461 1.2736 448.461C1.2736 442.061 21.2736 431.794 31.2736 427.461C21.2736 419.461 1.2736 388.761 1.2736 329.961Z" stroke="black"/>
</svg>
