<svg width="31" height="41" viewBox="0 0 31 41" fill="none" xmlns="http://www.w3.org/2000/svg">
<g clip-path="url(#clip0_57_790)">
<path d="M30.4479 8.03711L27.7244 37.6071L15.4818 40.8964L3.27299 37.6116L0.552246 8.03711H30.4479Z" fill="#E44D26"/>
<path d="M15.5 38.3821L25.3926 35.7241L27.72 10.4552H15.5V38.3821Z" fill="#F16529"/>
<path d="M10.2054 17.7097H15.5V14.0825H6.11523L6.20477 15.0556L7.12469 25.0512H15.5V21.424H10.5475L10.2054 17.7097ZM11.0489 26.8649H7.29191L7.81621 32.5601L15.4827 34.6226L15.5 34.6181V30.8442L15.4836 30.8485L11.3154 29.7577L11.0489 26.8649Z" fill="#EBEBEB"/>
<path d="M3.3335 0H5.23545V1.82115H6.97533V0H8.8774V5.5149H6.97545V3.66819H5.23557V5.5149H3.33361L3.3335 0ZM11.3784 1.82887H9.70428V0H14.9559V1.82887H13.2807V5.5149H11.3788L11.3784 1.82887ZM15.7894 0H17.7725L18.9924 1.93779L20.2112 0H22.1952V5.5149H20.301V2.78141L18.9924 4.74226H18.9596L17.6503 2.78141V5.5149H15.7894V0ZM23.1417 0H25.0442V3.69204H27.7189V5.5149H23.1416L23.1417 0Z" fill="#3D9CFB"/>
<path d="M15.4872 25.0512H20.0958L19.6613 29.7554L15.4871 30.8473V34.6209L23.1597 32.5601L23.2159 31.9473L24.0955 22.398L24.1868 21.424H15.4872V25.0512ZM15.4872 17.7009V17.7097H24.5274L24.6024 16.8945L24.773 15.0556L24.8624 14.0825H15.4872V17.7009Z" fill="white"/>
</g>
<defs>
<clipPath id="clip0_57_790">
<rect width="30" height="41" fill="white" transform="translate(0.5)"/>
</clipPath>
</defs>
</svg>
