<svg width="41" height="41" viewBox="0 0 41 41" fill="none" xmlns="http://www.w3.org/2000/svg">
<path fill-rule="evenodd" clip-rule="evenodd" d="M23.6877 2.5625C23.4416 2.56636 23.1976 2.60962 22.9651 2.69062C25.0292 4.04619 22.6064 6.01419 23.7339 7.6875C23.6543 7.12732 23.7428 6.55613 23.9883 6.04633C24.2337 5.53653 24.625 5.11108 25.1125 4.82391C25.4776 4.52025 25.7108 4.41134 25.6327 3.90909C25.5097 3.08653 24.4129 2.5625 23.6877 2.5625ZM26.6346 3.09294C26.3502 4.53178 25.994 4.58431 24.9395 5.51066C24.5278 5.83458 24.2372 6.28769 24.1145 6.79696C23.9917 7.30622 24.0441 7.84198 24.263 8.31787C19.9068 6.62663 14.3231 5.60419 10.2295 8.53056C8.75733 9.58247 7.85789 11.0931 6.04236 11.7093C4.86873 12.1104 3.71561 11.9925 2.98273 13.1559C2.71302 13.4915 2.57204 13.9124 2.58519 14.3427C2.59835 14.7731 2.76477 15.1846 3.05448 15.5031C3.27229 15.7273 3.69511 15.8708 3.86936 16.0989C3.97058 16.227 3.96801 16.3552 4.06411 16.5256C4.23393 16.9227 4.47936 17.283 4.78673 17.5864C4.97379 17.7415 5.62211 17.8927 5.73229 18.0579C5.86939 18.2642 5.51064 19.0829 5.81173 19.2111C6.01545 19.3046 6.60867 18.2578 6.66633 18.1656C6.54845 18.9894 6.39342 20.4513 7.31976 19.2341C7.75923 18.6563 7.78614 18.4654 8.52542 18.3373C9.98448 18.0874 11.4795 18.1426 12.9161 18.4995C14.3528 18.8564 15.6998 19.5072 16.8723 20.4109C18.0448 21.3145 19.0172 22.4514 19.7283 23.7497C20.4393 25.0481 20.8735 26.4797 21.0035 27.9543C20.8651 27.3137 20.0285 26.2887 19.2495 26.5321C18.9176 26.6346 18.7946 27.2073 18.5768 27.5392C18.301 27.9596 17.9617 28.3348 17.571 28.6513C17.637 28.0302 17.6058 27.4025 17.4788 26.7909C17.2456 27.7493 16.778 29.3393 15.6005 29.0818C15.2081 29.0222 14.8405 28.8534 14.5396 28.5946C14.2387 28.3359 14.0167 27.9976 13.899 27.6186C13.7465 26.6449 14.7754 25.5033 13.1213 25.4226C9.80283 25.2598 10.5703 30.1401 12.5293 31.4124C12.0792 31.4628 11.6401 31.5853 11.2289 31.775C12.4723 32.4976 13.8734 32.9056 15.3104 32.9635C16.7474 33.0214 18.1768 32.7276 19.4743 32.1074C20.7719 31.4873 21.8984 30.5597 22.756 29.4052C23.6135 28.2507 24.1762 26.9042 24.395 25.4828C24.8509 27.5621 24.5577 29.7357 23.5673 31.62C23.1526 32.4076 22.6213 33.1281 21.9914 33.7571C21.607 34.1415 20.8459 34.5643 20.5961 34.9627C22.1511 34.7576 23.6707 34.3403 25.1125 33.7225C23.6199 35.7561 21.6363 37.3783 19.3469 38.4375C21.8053 38.2635 24.1817 37.4803 26.2619 36.1586C28.3421 34.8369 30.0606 33.0182 31.2625 30.8666C30.8777 33.018 30.0272 35.0593 28.7705 36.8475C30.4629 35.7145 31.9029 34.2438 32.9998 32.5277C34.0968 30.8116 34.827 28.8873 35.1447 26.8755C35.4587 28.3484 35.5489 29.8601 35.4124 31.3599C36.803 29.4282 37.7425 27.2092 38.1619 24.8663C38.5812 22.5234 38.4696 20.1163 37.8353 17.8222C37.349 16.0392 36.6209 14.3313 35.6713 12.7459C35.3031 12.1284 34.9006 11.5321 34.4656 10.9598C34.2952 10.7382 33.3842 9.92712 33.3842 9.67856C33.3765 9.70333 33.3701 9.70333 33.365 9.67856C33.365 13.8631 28.8806 16.4833 25.1253 15.3968C26.579 15.2827 27.9503 14.6761 29.0126 13.6771C30.0749 12.6782 30.7646 11.3468 30.9678 9.90278C31.1387 8.44269 30.8012 6.9683 30.0122 5.72793C29.2232 4.48755 28.0295 3.55698 26.6346 3.09294Z" fill="url(#paint0_linear_57_827)"/>
<path d="M18.7575 34.7398L20.8972 33.4586C21.0082 33.8285 21.2274 34.1568 21.5265 34.4011C21.8256 34.6454 22.191 34.7946 22.5757 34.8295C23.4341 34.8295 23.985 34.4964 23.985 33.1767V24.2079H26.5475V33.1767C26.6024 33.6412 26.5653 34.1121 26.4382 34.5623C26.3111 35.0125 26.0966 35.4332 25.8068 35.8005C25.5171 36.1678 25.1579 36.4744 24.7497 36.7028C24.3415 36.9313 23.8923 37.0771 23.4277 37.1319C23.1615 37.1598 22.8931 37.1598 22.6269 37.1319C21.8061 37.1759 20.9912 36.9706 20.2892 36.543C19.5872 36.1154 19.0309 35.4855 18.6935 34.736M28.0338 34.4541L30.1735 33.1728C30.41 33.6502 30.7753 34.052 31.2281 34.3327C31.6809 34.6135 32.2032 34.762 32.736 34.7616C32.9286 34.8097 33.1289 34.8195 33.3253 34.7902C33.5217 34.761 33.7104 34.6933 33.8807 34.5911C34.051 34.4889 34.1994 34.3541 34.3176 34.1946C34.4358 34.035 34.5214 33.8537 34.5695 33.661C34.5788 33.6226 34.587 33.5837 34.5938 33.5444C34.5938 32.6475 33.8763 32.2631 32.6847 31.8019L32.0313 31.5187C30.135 30.7116 28.8794 29.6994 28.8794 27.5597C28.8869 26.629 29.2635 25.7394 29.9267 25.0864C30.5898 24.4334 31.485 24.0704 32.4157 24.0772C32.5194 24.0772 32.622 24.0772 32.7257 24.0926C33.4855 24.0338 34.2456 24.2022 34.9094 24.5763C35.5733 24.9505 36.111 25.5135 36.4542 26.1939L34.417 27.4751C34.2837 27.1371 34.0503 26.8479 33.748 26.6464C33.4457 26.4449 33.089 26.3406 32.7257 26.3476C32.4257 26.3103 32.1231 26.3937 31.8845 26.5794C31.6459 26.7651 31.4909 27.038 31.4534 27.338C31.448 27.3835 31.445 27.4293 31.4445 27.4751C31.4445 28.2567 31.9314 28.577 33.0589 29.0639L33.7123 29.3457C35.875 30.3067 37.1563 31.2804 37.1563 33.4842C37.1563 35.6879 35.2985 37.1357 32.8129 37.1357C31.8428 37.1983 30.8753 36.9788 30.0273 36.5036C29.1793 36.0284 28.4869 35.318 28.0338 34.4579" fill="#F7DF1E"/>
<defs>
<linearGradient id="paint0_linear_57_827" x1="20.4961" y1="38.4375" x2="20.4961" y2="2.5625" gradientUnits="userSpaceOnUse">
<stop stop-color="#FFB199"/>
<stop offset="1" stop-color="#FF0844"/>
</linearGradient>
</defs>
</svg>
