<svg width="41" height="41" viewBox="0 0 41 41" fill="none" xmlns="http://www.w3.org/2000/svg">
<path d="M2.5625 2.5625H38.4375V38.4375H2.5625V2.5625Z" fill="#F5DE19"/>
<path d="M26.6616 30.5898C26.9677 31.2103 27.4428 31.7319 28.032 32.0945C28.6213 32.4571 29.301 32.6462 29.9928 32.6398C31.3894 32.6398 32.2824 31.9415 32.2824 30.9742C32.2824 29.8211 31.3651 29.4085 29.8276 28.7359L28.9845 28.3745C26.5501 27.338 24.9357 26.0401 24.9357 23.2957C24.9357 20.7678 26.8576 18.842 29.8724 18.842C30.8483 18.7717 31.8233 18.9902 32.6759 19.4703C33.5285 19.9504 34.2209 20.6707 34.6668 21.5416L32.0313 23.2265C31.8595 22.7947 31.5606 22.4253 31.1741 22.1672C30.7877 21.9091 30.3319 21.7745 29.8673 21.7812C29.6645 21.7609 29.4598 21.7831 29.2661 21.8463C29.0724 21.9095 28.894 22.0124 28.7422 22.1483C28.5904 22.2843 28.4687 22.4504 28.3847 22.636C28.3006 22.8216 28.2562 23.0227 28.2542 23.2265C28.2542 24.2374 28.8807 24.6474 30.3272 25.2765L31.1703 25.6378C34.0352 26.8665 35.6547 28.1183 35.6547 30.9332C35.6547 33.9685 33.2703 35.6315 30.0684 35.6315C28.821 35.7102 27.5774 35.4266 26.4875 34.8149C25.3975 34.2032 24.5075 33.2895 23.9248 32.1837L26.6616 30.5898ZM14.7524 30.882C15.2815 31.8211 15.7633 32.6155 16.9215 32.6155C18.0285 32.6155 18.7281 32.1824 18.7281 30.4976V19.0342H22.0991V30.5424C22.0991 34.0325 20.0491 35.6213 17.065 35.6213C16.0102 35.679 14.9627 35.4161 14.0601 34.8673C13.1575 34.3184 12.4421 33.5093 12.0079 32.5463L14.7524 30.882Z" fill="black"/>
</svg>
