<svg width="40" height="35" viewBox="0 0 40 35" fill="none" xmlns="http://www.w3.org/2000/svg">
<g clip-path="url(#clip0_187_795)">
<path d="M32.3118 11.3326C31.8936 11.1891 31.4718 11.0562 31.0469 10.9339C31.1183 10.6423 31.184 10.3541 31.2423 10.0711C32.1999 5.42267 31.5739 1.67782 29.4357 0.444842C27.3856 -0.737176 24.0328 0.495346 20.6467 3.44225C20.313 3.73319 19.9867 4.03253 19.6681 4.33997C19.4548 4.13554 19.2378 3.93508 19.0171 3.73868C15.4682 0.587758 11.9111 -0.740246 9.77522 0.496267C7.72695 1.68197 7.12044 5.20239 7.98254 9.60778C8.06831 10.0441 8.16516 10.4781 8.27298 10.9095C7.76947 11.0526 7.28362 11.2049 6.81864 11.367C2.65794 12.8176 0.000854492 15.091 0.000854492 17.449C0.000854492 19.8844 2.85335 22.3272 7.18691 23.8084C7.53825 23.928 7.8925 24.0388 8.24934 24.1408C8.13349 24.6054 8.0306 25.0732 7.94079 25.5435C7.1189 29.8725 7.76072 33.3097 9.80346 34.4879C11.9133 35.7046 15.4544 34.4541 18.9024 31.44C19.182 31.1949 19.4554 30.9429 19.7224 30.6842C20.0674 31.0171 20.4217 31.3403 20.7847 31.6535C24.1248 34.5275 27.4234 35.688 29.4641 34.5066C31.5719 33.2864 32.257 29.5939 31.3676 25.1014C31.2975 24.7495 31.219 24.3993 31.132 24.0511C31.3807 23.9774 31.6247 23.9016 31.8627 23.8227C36.3679 22.3301 39.2991 19.917 39.2991 17.449C39.2991 15.0824 36.5562 12.7937 32.3118 11.3326ZM31.3348 22.2293C31.1196 22.3003 30.8996 22.3691 30.6747 22.4357C30.1773 20.8612 29.5062 19.187 28.6847 17.4571C29.4686 15.7685 30.1139 14.1157 30.5973 12.5515C30.9993 12.6678 31.3894 12.7905 31.7655 12.9199C35.4021 14.1719 37.6203 16.0228 37.6203 17.449C37.6203 18.9681 35.2247 20.9403 31.3348 22.2293ZM29.7208 25.4275C30.1141 27.4139 30.1701 29.2099 29.9096 30.6141C29.6756 31.8758 29.205 32.7168 28.6229 33.0538C27.3845 33.7707 24.736 32.8389 21.8797 30.3809C21.542 30.0897 21.2125 29.7892 20.8916 29.4798C21.999 28.2688 23.1056 26.8609 24.1857 25.2973C26.0855 25.1287 27.8803 24.853 29.508 24.4768C29.5883 24.8004 29.6593 25.1173 29.7208 25.4275ZM13.3985 32.9299C12.1885 33.3571 11.2248 33.3694 10.6422 33.0335C9.40265 32.3186 8.88732 29.5587 9.59024 25.8567C9.6738 25.4192 9.76948 24.9842 9.87715 24.552C11.4868 24.9082 13.2686 25.1642 15.1729 25.3186C16.2603 26.8487 17.3989 28.255 18.5464 29.4864C18.3025 29.7223 18.0529 29.9523 17.7977 30.176C16.2729 31.5087 14.7451 32.4543 13.3985 32.9299ZM7.73002 22.2199C5.81377 21.5649 4.23125 20.7137 3.14656 19.7848C2.17178 18.9502 1.67978 18.1214 1.67978 17.449C1.67978 16.018 3.81309 14.1928 7.37127 12.9523C7.80309 12.8018 8.25502 12.6598 8.72399 12.5266C9.21583 14.1262 9.86088 15.7986 10.6393 17.4898C9.85074 19.2061 9.19649 20.9053 8.69989 22.5237C8.37416 22.4304 8.05078 22.3291 7.73002 22.2199ZM9.63015 9.28526C8.89162 5.51094 9.38208 2.66381 10.6164 1.94923C11.9311 1.18813 14.8382 2.27328 17.9024 4.99407C18.1023 5.17189 18.2988 5.35331 18.4921 5.53826C17.3503 6.76434 16.2221 8.16019 15.1443 9.68116C13.2961 9.85247 11.5269 10.1276 9.90033 10.4961C9.80009 10.0949 9.71 9.69104 9.63015 9.28526ZM26.5817 13.4713C26.1975 12.8077 25.799 12.1524 25.3866 11.5059C26.6405 11.6645 27.8418 11.875 28.97 12.1322C28.6313 13.2178 28.2092 14.3527 27.7123 15.5163C27.3491 14.8272 26.9721 14.1454 26.5817 13.4713ZM19.6689 6.73824C20.4432 7.57717 21.2187 8.51372 21.9815 9.52995C20.4341 9.45686 18.8842 9.45656 17.3368 9.52903C18.1003 8.52217 18.8824 7.58684 19.6689 6.73824ZM12.7117 13.4826C12.3261 14.1513 11.9562 14.8289 11.6023 15.5148C11.1135 14.3553 10.6952 13.2152 10.3536 12.1143C11.4749 11.8634 12.6705 11.6583 13.9164 11.5027C13.4994 12.1531 13.0977 12.8134 12.7117 13.4826ZM13.9522 23.5146C12.665 23.3709 11.4514 23.1764 10.3305 22.9323C10.6774 21.8117 11.1049 20.6474 11.6043 19.463C11.9596 20.1495 12.3311 20.8275 12.7183 21.4964C13.1165 22.1841 13.5288 22.8577 13.9522 23.5146ZM19.7152 28.278C18.9194 27.4196 18.1258 26.4698 17.3507 25.4484C18.1032 25.4778 18.8703 25.4929 19.65 25.4929C20.451 25.4929 21.2428 25.4749 22.0221 25.4402C21.2569 26.4801 20.4843 27.4312 19.7152 28.278ZM27.7281 19.4026C28.2534 20.5999 28.6961 21.7582 29.0476 22.8596C27.9083 23.1196 26.6781 23.329 25.3818 23.4845C25.7972 22.8261 26.1994 22.1594 26.5883 21.4849C26.9836 20.7993 27.3637 20.1051 27.7281 19.4026ZM25.1341 20.6461C24.5388 21.6802 23.91 22.6947 23.2488 23.6879C22.0511 23.7728 20.8507 23.8149 19.65 23.8142C18.427 23.8142 17.2374 23.7762 16.092 23.7019C15.4135 22.711 14.7727 21.6947 14.1711 20.6553C13.5722 19.6215 13.0131 18.5653 12.4945 17.4889C13.0118 16.4123 13.5694 15.3556 14.1662 14.321L14.166 14.3211C14.7625 13.2862 15.3982 12.2743 16.0715 11.2876C17.2402 11.1992 18.4386 11.1532 19.6498 11.1532C20.8665 11.1532 22.0667 11.1997 23.235 11.2887C23.9016 12.2739 24.5332 13.2823 25.1286 14.3121C25.7273 15.3445 26.2923 16.396 26.8227 17.4651C26.2977 18.5451 25.7345 19.6061 25.1341 20.6461ZM28.5972 1.89903C29.9131 2.65798 30.4249 5.71848 29.5981 9.73197C29.5451 9.98823 29.4863 10.2487 29.4216 10.5133C27.791 10.1369 26.0206 9.85708 24.167 9.68315C23.0872 8.14546 21.9683 6.74745 20.845 5.53719C21.1394 5.25344 21.4408 4.97704 21.7489 4.70824C24.6502 2.18348 27.3618 1.1866 28.5972 1.89903ZM19.65 13.9398C21.588 13.9398 23.1592 15.511 23.1592 17.449C23.1592 19.3871 21.588 20.9582 19.65 20.9582C17.7119 20.9582 16.1408 19.3871 16.1408 17.449C16.1408 15.511 17.7119 13.9398 19.65 13.9398Z" fill="#00D8FF"/>
</g>
<defs>
<clipPath id="clip0_187_795">
<rect width="39.3" height="35" fill="white"/>
</clipPath>
</defs>
</svg>
