<svg width="29" height="41" viewBox="0 0 29 41" fill="none" xmlns="http://www.w3.org/2000/svg">
<g clip-path="url(#clip0_57_799)">
<path d="M14.4825 40.8964L2.84151 37.6116L0.247314 8.03711H28.7525L26.1556 37.6071L14.4825 40.8964Z" fill="#264DE4"/>
<path d="M23.9325 35.7241L26.1516 10.4552H14.5V38.3821L23.9325 35.7241Z" fill="#2965F1"/>
<path d="M6.19447 21.424L6.51426 25.0512H14.5V21.424H6.19447ZM5.55176 14.0825L5.87613 17.7097H14.5V14.0825H5.55176ZM14.5 30.8443L14.4843 30.8485L10.5101 29.7577L10.256 26.8649H6.67371L7.17362 32.5601L14.4836 34.6226L14.5 34.6181V30.8443Z" fill="#EBEBEB"/>
<path d="M6.95593 0H11.2779V1.83716H8.76339V3.67433H11.2781V5.51138H6.95593V0ZM12.1424 0H16.4645V1.59752H13.9499V1.91701H16.4645V5.59133H12.1425V3.91374H14.6572V3.59426H12.1423L12.1424 0ZM17.329 0H21.6511V1.59752H19.1365V1.91701H21.6511V5.59133H17.329V3.91374H19.8437V3.59426H17.3291L17.329 0Z" fill="#3D9CFB"/>
<path d="M22.7827 21.424L23.4268 14.0825H14.4877V17.7097H19.516L19.1913 21.424H14.4877V25.0512H18.8819L18.4676 29.7554L14.4875 30.8473V34.6209L21.8033 32.5601L21.8569 31.9473L22.6956 22.398L22.7827 21.424Z" fill="white"/>
</g>
<defs>
<clipPath id="clip0_57_799">
<rect width="28.6047" height="41" fill="white" transform="translate(0.197632)"/>
</clipPath>
</defs>
</svg>
