<svg width="41" height="41" viewBox="0 0 41 41" fill="none" xmlns="http://www.w3.org/2000/svg">
<path fill-rule="evenodd" clip-rule="evenodd" d="M20.5 2.5625C24.0477 2.5625 27.5157 3.61452 30.4655 5.58551C33.4153 7.55651 35.7144 10.358 37.0721 13.6356C38.4297 16.9133 38.785 20.5199 38.0928 23.9994C37.4007 27.479 35.6923 30.6751 33.1837 33.1837C30.6751 35.6923 27.479 37.4007 23.9994 38.0928C20.5199 38.785 16.9133 38.4297 13.6356 37.0721C10.358 35.7144 7.55651 33.4153 5.58551 30.4655C3.61452 27.5157 2.5625 24.0477 2.5625 20.5C2.5625 15.7427 4.45234 11.1802 7.81627 7.81627C11.1802 4.45234 15.7427 2.5625 20.5 2.5625Z" fill="#83CD29"/>
<path d="M20.5 38.4375C20.016 38.4378 19.5405 38.3105 19.1214 38.0685L14.7344 35.4714C14.0796 35.105 14.3987 34.9756 14.6152 34.9C15.3117 34.6852 15.9784 34.3839 16.5999 34.0031C16.6518 33.9787 16.7092 33.9681 16.7664 33.9723C16.8237 33.9766 16.8788 33.9956 16.9266 34.0274L20.2976 36.03C20.3603 36.0632 20.4303 36.0806 20.5013 36.0806C20.5723 36.0806 20.6422 36.0632 20.705 36.03L33.8506 28.4425C33.9124 28.4059 33.9635 28.3538 33.9988 28.2913C34.0341 28.2288 34.0524 28.1581 34.0518 28.0863V12.9086C34.0519 12.8357 34.0333 12.7641 33.9976 12.7005C33.9619 12.637 33.9104 12.5838 33.8481 12.546L20.7024 4.96485C20.6406 4.92958 20.5706 4.91102 20.4994 4.91102C20.4281 4.91102 20.3581 4.92958 20.2963 4.96485L7.15834 12.5486C7.09567 12.5856 7.04363 12.6382 7.00727 12.7013C6.97091 12.7644 6.95145 12.8358 6.95078 12.9086V28.0799C6.9516 28.1513 6.97107 28.2213 7.00725 28.2828C7.04344 28.3444 7.09507 28.3955 7.15706 28.4309L10.7625 30.5117C12.7164 31.488 13.9131 30.3374 13.9131 29.1818V14.2027C13.9131 14.1007 13.9536 14.003 14.0257 13.9309C14.0978 13.8588 14.1955 13.8183 14.2975 13.8183H15.9631C16.065 13.8183 16.1628 13.8588 16.2349 13.9309C16.307 14.003 16.3475 14.1007 16.3475 14.2027V29.183C16.3475 31.7904 14.9278 33.283 12.455 33.283C11.3883 33.3008 10.3385 33.0156 9.42743 32.4605L5.9719 30.4784C5.55275 30.2337 5.20495 29.8836 4.96309 29.4628C4.72123 29.042 4.59373 28.5652 4.59328 28.0799V12.9086C4.59177 12.4224 4.7184 11.9443 4.96042 11.5226C5.20245 11.1008 5.55131 10.7503 5.9719 10.5063L19.1188 2.91613C19.5424 2.6849 20.0174 2.56372 20.5 2.56372C20.9826 2.56372 21.4575 2.6849 21.8812 2.91613L35.0268 10.5063C35.4458 10.7506 35.7936 11.1002 36.0357 11.5205C36.2778 11.9408 36.4057 12.4172 36.4067 12.9022V28.0799C36.4061 28.5653 36.2784 29.0422 36.0363 29.463C35.7942 29.8838 35.4462 30.2339 35.0268 30.4784L21.8812 38.0685C21.4613 38.3109 20.9848 38.4382 20.5 38.4375ZM24.969 27.8582C29.1343 27.8582 31.5226 26.2182 31.5226 23.3533C31.5226 20.5141 29.6007 19.7569 25.5635 19.2239C21.4814 18.6832 21.0663 18.4052 21.0663 17.4494C21.0663 16.6601 21.4174 15.6069 24.4411 15.6069C27.142 15.6069 28.1375 16.1886 28.5411 18.0093C28.5606 18.0929 28.6075 18.1676 28.6744 18.2215C28.7412 18.2754 28.8242 18.3053 28.9101 18.3065H30.6219C30.6744 18.3058 30.7262 18.2943 30.7741 18.2728C30.822 18.2513 30.865 18.2202 30.9004 18.1814C30.9358 18.1426 30.9629 18.097 30.98 18.0473C30.9971 17.9977 31.0039 17.945 30.9998 17.8927C30.7359 14.7562 28.6526 13.2943 24.4398 13.2943C20.6922 13.2943 18.4564 14.8766 18.4564 17.5288C18.4564 20.4065 20.6806 21.2009 24.2784 21.557C28.5821 21.9786 28.9165 22.6077 28.9165 23.4546C28.9165 24.9242 27.7378 25.5507 24.9677 25.5507C21.4891 25.5507 20.7229 24.6769 20.4667 22.9472C20.4518 22.8576 20.4057 22.7761 20.3366 22.7172C20.2674 22.6584 20.1796 22.6259 20.0887 22.6256H18.3872C18.2853 22.6256 18.1875 22.6661 18.1154 22.7382C18.0433 22.8103 18.0028 22.908 18.0028 23.01C18.0067 25.2176 19.2123 27.8582 24.9652 27.8582H24.969Z" fill="white"/>
</svg>
