<svg width="221" height="48" viewBox="0 0 221 48" fill="none" xmlns="http://www.w3.org/2000/svg">
<path d="M20.0001 5.66675L35.8334 14.8334V33.1667L20.0001 42.3334L4.16675 33.1667V14.8334L20.0001 5.66675ZM7.50008 16.7551V16.7634L20.0001 24.0001V38.4817L32.5001 31.2451V16.7551L20.0001 9.51841L7.50008 16.7551Z" fill="white"/>
<path d="M59.0156 35H54.0625L54.0938 31.3438H59.0156C60.2448 31.3438 61.2812 31.0677 62.125 30.5156C62.9688 29.9531 63.6042 29.1354 64.0312 28.0625C64.4688 26.9896 64.6875 25.6927 64.6875 24.1719V23.0625C64.6875 21.8958 64.5625 20.8698 64.3125 19.9844C64.0729 19.099 63.7135 18.3542 63.2344 17.75C62.7552 17.1458 62.1667 16.6927 61.4688 16.3906C60.7708 16.0781 59.9688 15.9219 59.0625 15.9219H53.9688V12.25H59.0625C60.5833 12.25 61.974 12.5104 63.2344 13.0312C64.5052 13.5417 65.6042 14.276 66.5312 15.2344C67.4583 16.1927 68.1719 17.3385 68.6719 18.6719C69.1823 19.9948 69.4375 21.4688 69.4375 23.0938V24.1719C69.4375 25.7865 69.1823 27.2604 68.6719 28.5938C68.1719 29.9271 67.4583 31.0729 66.5312 32.0312C65.6146 32.9792 64.5156 33.7135 63.2344 34.2344C61.9635 34.7448 60.5573 35 59.0156 35ZM56.7188 12.25V35H52.0312V12.25H56.7188ZM99.5938 12.25V35H94.9062V12.25H99.5938ZM113.219 12.25L104.203 23.4844L99 29.0781L98.1562 24.6406L101.672 19.8281L107.469 12.25H113.219ZM107.891 35L101.188 24.4844L104.656 21.5781L113.438 35H107.891Z" fill="#3D9CFB"/>
<path d="M91.5312 23.0938V24.1719C91.5312 25.901 91.2969 27.4531 90.8281 28.8281C90.3594 30.2031 89.6979 31.375 88.8438 32.3438C87.9896 33.3021 86.9688 34.0365 85.7812 34.5469C84.6042 35.0573 83.2969 35.3125 81.8594 35.3125C80.4323 35.3125 79.125 35.0573 77.9375 34.5469C76.7604 34.0365 75.7396 33.3021 74.875 32.3438C74.0104 31.375 73.3385 30.2031 72.8594 28.8281C72.3906 27.4531 72.1562 25.901 72.1562 24.1719V23.0938C72.1562 21.3542 72.3906 19.8021 72.8594 18.4375C73.3281 17.0625 73.9896 15.8906 74.8438 14.9219C75.7083 13.9531 76.7292 13.2135 77.9062 12.7031C79.0938 12.1927 80.401 11.9375 81.8281 11.9375C83.2656 11.9375 84.5729 12.1927 85.75 12.7031C86.9375 13.2135 87.9583 13.9531 88.8125 14.9219C89.6771 15.8906 90.3438 17.0625 90.8125 18.4375C91.2917 19.8021 91.5312 21.3542 91.5312 23.0938ZM86.7969 24.1719V23.0625C86.7969 21.8542 86.6875 20.7917 86.4688 19.875C86.25 18.9583 85.9271 18.1875 85.5 17.5625C85.0729 16.9375 84.5521 16.4688 83.9375 16.1562C83.3229 15.8333 82.6198 15.6719 81.8281 15.6719C81.0365 15.6719 80.3333 15.8333 79.7188 16.1562C79.1146 16.4688 78.599 16.9375 78.1719 17.5625C77.7552 18.1875 77.4375 18.9583 77.2188 19.875C77 20.7917 76.8906 21.8542 76.8906 23.0625V24.1719C76.8906 25.3698 77 26.4323 77.2188 27.3594C77.4375 28.276 77.7604 29.0521 78.1875 29.6875C78.6146 30.3125 79.1354 30.7865 79.75 31.1094C80.3646 31.4323 81.0677 31.5938 81.8594 31.5938C82.651 31.5938 83.3542 31.4323 83.9688 31.1094C84.5833 30.7865 85.099 30.3125 85.5156 29.6875C85.9323 29.0521 86.25 28.276 86.4688 27.3594C86.6875 26.4323 86.7969 25.3698 86.7969 24.1719ZM118.375 12.25L123.125 22.625L127.875 12.25H132.984L125.5 26.7188V35H120.75V26.7188L113.25 12.25H118.375ZM153.281 23.0938V24.1719C153.281 25.901 153.047 27.4531 152.578 28.8281C152.109 30.2031 151.448 31.375 150.594 32.3438C149.74 33.3021 148.719 34.0365 147.531 34.5469C146.354 35.0573 145.047 35.3125 143.609 35.3125C142.182 35.3125 140.875 35.0573 139.688 34.5469C138.51 34.0365 137.49 33.3021 136.625 32.3438C135.76 31.375 135.089 30.2031 134.609 28.8281C134.141 27.4531 133.906 25.901 133.906 24.1719V23.0938C133.906 21.3542 134.141 19.8021 134.609 18.4375C135.078 17.0625 135.74 15.8906 136.594 14.9219C137.458 13.9531 138.479 13.2135 139.656 12.7031C140.844 12.1927 142.151 11.9375 143.578 11.9375C145.016 11.9375 146.323 12.1927 147.5 12.7031C148.688 13.2135 149.708 13.9531 150.562 14.9219C151.427 15.8906 152.094 17.0625 152.562 18.4375C153.042 19.8021 153.281 21.3542 153.281 23.0938ZM148.547 24.1719V23.0625C148.547 21.8542 148.438 20.7917 148.219 19.875C148 18.9583 147.677 18.1875 147.25 17.5625C146.823 16.9375 146.302 16.4688 145.688 16.1562C145.073 15.8333 144.37 15.6719 143.578 15.6719C142.786 15.6719 142.083 15.8333 141.469 16.1562C140.865 16.4688 140.349 16.9375 139.922 17.5625C139.505 18.1875 139.188 18.9583 138.969 19.875C138.75 20.7917 138.641 21.8542 138.641 23.0625V24.1719C138.641 25.3698 138.75 26.4323 138.969 27.3594C139.188 28.276 139.51 29.0521 139.938 29.6875C140.365 30.3125 140.885 30.7865 141.5 31.1094C142.115 31.4323 142.818 31.5938 143.609 31.5938C144.401 31.5938 145.104 31.4323 145.719 31.1094C146.333 30.7865 146.849 30.3125 147.266 29.6875C147.682 29.0521 148 28.276 148.219 27.3594C148.438 26.4323 148.547 25.3698 148.547 24.1719ZM169.219 12.25H173.891V27.2812C173.891 29.0312 173.516 30.5052 172.766 31.7031C172.026 32.901 171 33.8021 169.688 34.4062C168.385 35.0104 166.885 35.3125 165.188 35.3125C163.49 35.3125 161.979 35.0104 160.656 34.4062C159.344 33.8021 158.312 32.901 157.562 31.7031C156.823 30.5052 156.453 29.0312 156.453 27.2812V12.25H161.141V27.2812C161.141 28.3021 161.302 29.1354 161.625 29.7812C161.948 30.4271 162.411 30.901 163.016 31.2031C163.63 31.5052 164.354 31.6562 165.188 31.6562C166.042 31.6562 166.766 31.5052 167.359 31.2031C167.964 30.901 168.422 30.4271 168.734 29.7812C169.057 29.1354 169.219 28.3021 169.219 27.2812V12.25ZM196.266 12.25V35H191.578L182.438 19.75V35H177.75V12.25H182.438L191.594 27.5156V12.25H196.266ZM218.375 23.1094V32.125C218.021 32.5521 217.474 33.0156 216.734 33.5156C215.995 34.0052 215.042 34.4271 213.875 34.7812C212.708 35.1354 211.297 35.3125 209.641 35.3125C208.172 35.3125 206.833 35.0729 205.625 34.5938C204.417 34.1042 203.375 33.3906 202.5 32.4531C201.635 31.5156 200.969 30.3698 200.5 29.0156C200.031 27.651 199.797 26.0938 199.797 24.3438V22.9219C199.797 21.1719 200.021 19.6146 200.469 18.25C200.927 16.8854 201.578 15.7344 202.422 14.7969C203.266 13.8594 204.271 13.1458 205.438 12.6562C206.604 12.1667 207.901 11.9219 209.328 11.9219C211.307 11.9219 212.932 12.2448 214.203 12.8906C215.474 13.526 216.443 14.4115 217.109 15.5469C217.786 16.6719 218.203 17.9635 218.359 19.4219H213.812C213.698 18.651 213.479 17.9792 213.156 17.4062C212.833 16.8333 212.37 16.3854 211.766 16.0625C211.172 15.7396 210.401 15.5781 209.453 15.5781C208.672 15.5781 207.974 15.7396 207.359 16.0625C206.755 16.375 206.245 16.8385 205.828 17.4531C205.411 18.0677 205.094 18.8281 204.875 19.7344C204.656 20.6406 204.547 21.6927 204.547 22.8906V24.3438C204.547 25.5312 204.661 26.5833 204.891 27.5C205.12 28.4062 205.458 29.1719 205.906 29.7969C206.365 30.4115 206.927 30.875 207.594 31.1875C208.26 31.5 209.036 31.6562 209.922 31.6562C210.661 31.6562 211.276 31.5938 211.766 31.4688C212.266 31.3438 212.667 31.1927 212.969 31.0156C213.281 30.8281 213.521 30.651 213.688 30.4844V26.4531H209.406V23.1094H218.375Z" fill="white"/>
</svg>
